# xmcd
#
# Track frame offsets:
#	150
#	27613
#	66455
#	94731
#	127382
#	156857
#	198338
#
# Disc length: 2961 seconds
#
# Revision: 0
# Processed by: cddbd v1.5.2PL0 Copyright (c) Steve Scherf et al.
# Submitted via: audiograbber 1.83.01
#
DISCID=690b8f07
DTITLE=Grateful Dead - 94-10-14 Madison Square Garden, New York NY
DYEAR=1900
DGENRE=
TTITLE0=Jack Straw
TTITLE1=West LA Fadeaway
TTITLE2=Queen Jane Approximately
TTITLE3=Lazy River Road
TTITLE4=El Paso
TTITLE5=Ramble On Road
TTITLE6=Box Of Rain
EXTD=
EXTT0=
EXTT1=
EXTT2=
EXTT3=
EXTT4=
EXTT5=
EXTT6=
PLAYORDER=
